<?xml version="1.0" encoding="UTF-8" standalone="no"?>
<!DOCTYPE svg PUBLIC "-//W3C//DTD SVG 1.1//EN"
 "http://www.w3.org/Graphics/SVG/1.1/DTD/svg11.dtd">
<!-- Generated by graphviz version 12.2.1 (20241206.2353)
 -->
<!-- Pages: 1 -->
<svg width="1078pt" height="188pt"
 viewBox="0.00 0.00 1078.03 188.00" xmlns="http://www.w3.org/2000/svg" xmlns:xlink="http://www.w3.org/1999/xlink">
<g id="graph0" class="graph" transform="scale(1 1) rotate(0) translate(4 184)">
<polygon fill="white" stroke="none" points="-4,4 -4,-184 1074.03,-184 1074.03,4 -4,4"/>
<!-- 1 -->
<g id="node1" class="node">
<title>1</title>
<ellipse fill="#b38bbe" stroke="black" cx="578.91" cy="-162" rx="44.7" ry="18"/>
<text text-anchor="middle" x="578.91" y="-156.95" font-family="Times New Roman,serif" font-size="14.00">1 ((7, 7))</text>
</g>
<!-- 2 -->
<g id="node2" class="node">
<title>2</title>
<ellipse fill="#5bf694" stroke="black" cx="248.91" cy="-90" rx="53.91" ry="18"/>
<text text-anchor="middle" x="248.91" y="-84.95" font-family="Times New Roman,serif" font-size="14.00">2 ((19, 26))</text>
</g>
<!-- 1&#45;&gt;2 -->
<g id="edge4" class="edge">
<title>1&#45;&gt;2</title>
<path fill="none" stroke="black" d="M540.08,-152.76C478.49,-139.7 358.72,-114.29 293.63,-100.49"/>
</g>
<!-- 3 -->
<g id="node6" class="node">
<title>3</title>
<ellipse fill="#5bf694" stroke="black" cx="578.91" cy="-90" rx="53.91" ry="18"/>
<text text-anchor="middle" x="578.91" y="-84.95" font-family="Times New Roman,serif" font-size="14.00">3 ((86, 93))</text>
</g>
<!-- 1&#45;&gt;3 -->
<g id="edge8" class="edge">
<title>1&#45;&gt;3</title>
<path fill="none" stroke="black" d="M578.91,-143.7C578.91,-132.85 578.91,-118.92 578.91,-108.1"/>
</g>
<!-- 4 -->
<g id="node10" class="node">
<title>4</title>
<ellipse fill="#5bf694" stroke="black" cx="862.91" cy="-90" rx="53.91" ry="18"/>
<text text-anchor="middle" x="862.91" y="-84.95" font-family="Times New Roman,serif" font-size="14.00">4 ((88, 95))</text>
</g>
<!-- 1&#45;&gt;4 -->
<g id="edge11" class="edge">
<title>1&#45;&gt;4</title>
<path fill="none" stroke="black" d="M616.33,-151.78C669.05,-138.78 764.92,-115.15 820.31,-101.5"/>
</g>
<!-- 5 -->
<g id="node3" class="node">
<title>5</title>
<ellipse fill="#9d1de9" stroke="black" cx="53.91" cy="-18" rx="53.91" ry="18"/>
<text text-anchor="middle" x="53.91" y="-12.95" font-family="Times New Roman,serif" font-size="14.00">5 ((39, 65))</text>
</g>
<!-- 2&#45;&gt;5 -->
<g id="edge1" class="edge">
<title>2&#45;&gt;5</title>
<path fill="none" stroke="black" d="M213.14,-76.16C178.07,-63.57 124.89,-44.48 89.78,-31.88"/>
</g>
<!-- 6 -->
<g id="node4" class="node">
<title>6</title>
<ellipse fill="#9d1de9" stroke="black" cx="183.91" cy="-18" rx="58.52" ry="18"/>
<text text-anchor="middle" x="183.91" y="-12.95" font-family="Times New Roman,serif" font-size="14.00">6 ((75, 101))</text>
</g>
<!-- 2&#45;&gt;6 -->
<g id="edge2" class="edge">
<title>2&#45;&gt;6</title>
<path fill="none" stroke="black" d="M233.51,-72.41C223.14,-61.25 209.54,-46.6 199.2,-35.47"/>
</g>
<!-- 7 -->
<g id="node5" class="node">
<title>7</title>
<ellipse fill="#9d1de9" stroke="black" cx="313.91" cy="-18" rx="53.91" ry="18"/>
<text text-anchor="middle" x="313.91" y="-12.95" font-family="Times New Roman,serif" font-size="14.00">7 ((30, 56))</text>
</g>
<!-- 2&#45;&gt;7 -->
<g id="edge3" class="edge">
<title>2&#45;&gt;7</title>
<path fill="none" stroke="black" d="M264.31,-72.41C274.68,-61.25 288.28,-46.6 298.62,-35.47"/>
</g>
<!-- 8 -->
<g id="node7" class="node">
<title>8</title>
<ellipse fill="#c56c78" stroke="black" cx="443.91" cy="-18" rx="58.52" ry="18"/>
<text text-anchor="middle" x="443.91" y="-12.95" font-family="Times New Roman,serif" font-size="14.00">8 ((11, 104))</text>
</g>
<!-- 3&#45;&gt;8 -->
<g id="edge5" class="edge">
<title>3&#45;&gt;8</title>
<path fill="none" stroke="black" d="M550.61,-74.33C527.72,-62.46 495.64,-45.82 472.64,-33.9"/>
</g>
<!-- 9 -->
<g id="node8" class="node">
<title>9</title>
<ellipse fill="#c56c78" stroke="black" cx="578.91" cy="-18" rx="58.52" ry="18"/>
<text text-anchor="middle" x="578.91" y="-12.95" font-family="Times New Roman,serif" font-size="14.00">9 ((22, 115))</text>
</g>
<!-- 3&#45;&gt;9 -->
<g id="edge6" class="edge">
<title>3&#45;&gt;9</title>
<path fill="none" stroke="black" d="M578.91,-71.7C578.91,-60.85 578.91,-46.92 578.91,-36.1"/>
</g>
<!-- 10 -->
<g id="node9" class="node">
<title>10</title>
<ellipse fill="#c56c78" stroke="black" cx="718.91" cy="-18" rx="63.12" ry="18"/>
<text text-anchor="middle" x="718.91" y="-12.95" font-family="Times New Roman,serif" font-size="14.00">10 ((20, 113))</text>
</g>
<!-- 3&#45;&gt;10 -->
<g id="edge7" class="edge">
<title>3&#45;&gt;10</title>
<path fill="none" stroke="black" d="M607.92,-74.5C631.47,-62.72 664.57,-46.17 688.49,-34.21"/>
</g>
<!-- 11 -->
<g id="node11" class="node">
<title>11</title>
<ellipse fill="#8f23ba" stroke="black" cx="862.91" cy="-18" rx="63.12" ry="18"/>
<text text-anchor="middle" x="862.91" y="-12.95" font-family="Times New Roman,serif" font-size="14.00">11 ((54, 149))</text>
</g>
<!-- 4&#45;&gt;11 -->
<g id="edge9" class="edge">
<title>4&#45;&gt;11</title>
<path fill="none" stroke="black" d="M862.91,-71.7C862.91,-60.85 862.91,-46.92 862.91,-36.1"/>
</g>
<!-- 12 -->
<g id="node12" class="node">
<title>12</title>
<ellipse fill="#8f23ba" stroke="black" cx="1006.91" cy="-18" rx="63.12" ry="18"/>
<text text-anchor="middle" x="1006.91" y="-12.95" font-family="Times New Roman,serif" font-size="14.00">12 ((92, 187))</text>
</g>
<!-- 4&#45;&gt;12 -->
<g id="edge10" class="edge">
<title>4&#45;&gt;12</title>
<path fill="none" stroke="black" d="M892.4,-74.67C916.75,-62.83 951.22,-46.07 975.97,-34.04"/>
</g>
</g>
</svg>
